<?xml version="1.0" standalone="no"?>
<!DOCTYPE svg PUBLIC "-//W3C//DTD SVG 20010904//EN"
 "http://www.w3.org/TR/2001/REC-SVG-20010904/DTD/svg10.dtd">
<svg version="1.0" xmlns="http://www.w3.org/2000/svg"
 width="125.000000pt" height="125.000000pt" viewBox="0 0 125.000000 125.000000"
 preserveAspectRatio="xMidYMid meet">
<metadata>
Created by potrace 1.14, written by Peter Selinger 2001-2017
</metadata>
<g transform="translate(0.000000,125.000000) scale(0.100000,-0.100000)"
fill="#000000" stroke="none">
<path d="M401 1208 c-74 -197 -211 -652 -211 -701 0 -32 -14 -69 -32 -88 -27
-27 -52 -162 -38 -199 1 -3 1 -13 0 -24 -2 -23 112 -136 138 -136 10 0 23 -5
29 -11 8 -8 17 -8 32 0 15 8 33 8 68 0 91 -21 279 -13 426 18 33 7 89 8 168 2
53 -4 99 20 99 50 0 11 5 21 11 23 13 4 -43 113 -71 138 -38 34 -120 138 -120
151 0 8 15 23 33 34 17 10 72 45 120 77 48 32 92 58 97 58 16 0 22 21 10 35
-10 12 -31 2 -128 -65 -65 -43 -121 -75 -125 -71 -5 5 -12 33 -16 62 -8 56
-25 99 -41 99 -8 0 -19 23 -20 45 -1 6 -11 15 -24 22 -13 7 -59 63 -103 125
-98 138 -270 365 -283 373 -6 3 -14 -4 -19 -17z"/>
</g>
</svg>
