<svg xmlns="http://www.w3.org/2000/svg" fill="none" viewBox="0 0 16 16">
  <defs/>
  <path fill="#F5F6F8" d="M8.26 2.45a.89.89 0 000-1.77c-.5 0-.9.4-.9.88 0 .49.41.9.9.9zm4.01 1.67c.35.34.9.34 1.25 0a.87.87 0 000-1.25.87.87 0 00-1.25 0 .89.89 0 000 1.25zm-9.3 0c.35.35.91.35 1.26 0a.87.87 0 000-1.25.87.87 0 00-1.25 0 .89.89 0 000 1.25zm5.29 7.83c2.08 0 3.8-1.72 3.8-3.8s-1.72-3.8-3.8-3.8a3.83 3.83 0 00-3.8 3.8c0 2.08 1.72 3.8 3.8 3.8zm0-1.2a2.62 2.62 0 01-2.6-2.6c0-1.4 1.18-2.59 2.6-2.59a2.6 2.6 0 012.58 2.59c0 1.41-1.17 2.6-2.58 2.6zM1.69 9.02a.89.89 0 100-1.77.89.89 0 000 1.77zm13.14.05a.89.89 0 000-1.78.9.9 0 00-.9.9c0 .48.4.88.9.88zM2.98 13.4c.35.35.91.35 1.25 0a.89.89 0 000-1.25.89.89 0 00-1.25 0 .87.87 0 000 1.25zm9.25.03c.36.36.91.36 1.26 0a.88.88 0 000-1.24.88.88 0 00-1.26 0 .88.88 0 000 1.24zM8.26 15.6a.89.89 0 000-1.77.9.9 0 00-.9.88c0 .5.4.9.9.9z"/>
</svg>
