<svg xmlns="http://www.w3.org/2000/svg" fill="none" viewBox="0 0 11 12">
  <defs/>
  <path d="M11 8.7a3.12 3.12 0 01-.24 1.09c-.11.26-.43.54-.96.83a3.03 3.03 0 01-2.68.16 26.3 26.3 0 00-.82-.3c-.5-.18-.96-.4-1.36-.65-.66-.41-1.35-.97-2.07-1.69-.7-.71-1.27-1.4-1.68-2.06a7.08 7.08 0 01-.8-1.75L.24 3.9a20.4 20.4 0 01-.2-.82A3.03 3.03 0 01.4 1.21C.68.7.96.37 1.22.26A3.12 3.12 0 012.48.04c.09.03.23.23.41.6a18.8 18.8 0 01.5.92 22.56 22.56 0 00.56.89c.03.07.05.14.05.22 0 .1-.08.23-.23.39-.14.15-.3.3-.48.43-.17.13-.33.26-.49.41-.14.15-.21.27-.21.36a4.78 4.78 0 00.21.52 8.2 8.2 0 001.45 1.98 8.2 8.2 0 001.98 1.46 20.01 20.01 0 00.35.17c.07.03.13.04.18.04.1 0 .21-.07.36-.22.14-.15.28-.31.41-.48.13-.18.27-.34.43-.49.16-.15.29-.22.4-.22.06 0 .14.02.21.05l.28.17.2.14a22.5 22.5 0 001.33.75c.37.18.57.32.6.41l.02.17z"/>
</svg>
