<svg xmlns="http://www.w3.org/2000/svg" fill="none" viewBox="0 0 14 14">
  <defs/>
  <path d="M8.97 8A3.38 3.38 0 0010 5.51c0-.97-.35-1.79-1.03-2.47A3.35 3.35 0 006.5 2.02c-.97 0-1.8.34-2.48 1.03A3.36 3.36 0 003 5.52c0 .96.34 1.79 1.02 2.47A3.39 3.39 0 006.5 9.02c.96 0 1.78-.34 2.47-1.03zM14 12.01c0 .27-.1.5-.3.7-.2.2-.43.3-.7.3a.93.93 0 01-.7-.3l-2.68-2.67a5.48 5.48 0 01-8.19-6.66A5.53 5.53 0 014.36.45a5.4 5.4 0 014.27 0 5.36 5.36 0 012.93 2.92 5.35 5.35 0 01-.53 5.25l2.68 2.68c.2.2.29.43.29.7z"/>
</svg>

