<svg xmlns="http://www.w3.org/2000/svg" xmlns:xlink="http://www.w3.org/1999/xlink"><defs>
    <clipPath id="point1">
      <path fill="#fff" d="M0 0h8v8H0z" transform="translate(.04 .35)"/>
    </clipPath>
  </defs><symbol id="icon-close" viewBox="0 0 20 20"><path d="M.293 18.291a1 1 0 101.414 1.414L10 11.413l8.292 8.292a1 1 0 101.414-1.414l-8.292-8.292 8.292-8.292A1 1 0 1018.291.293L9.999 8.585 1.707.293A1 1 0 10.293 1.707L8.585 10 .293 18.291z"/></symbol><symbol id="icon-phone" viewBox="0 0 11 12">
  
  <path d="M11 8.7a3.12 3.12 0 01-.24 1.09c-.11.26-.43.54-.96.83a3.03 3.03 0 01-2.68.16 26.3 26.3 0 00-.82-.3c-.5-.18-.96-.4-1.36-.65-.66-.41-1.35-.97-2.07-1.69-.7-.71-1.27-1.4-1.68-2.06a7.08 7.08 0 01-.8-1.75L.24 3.9a20.4 20.4 0 01-.2-.82A3.03 3.03 0 01.4 1.21C.68.7.96.37 1.22.26A3.12 3.12 0 012.48.04c.09.03.23.23.41.6a18.8 18.8 0 01.5.92 22.56 22.56 0 00.56.89c.03.07.05.14.05.22 0 .1-.08.23-.23.39-.14.15-.3.3-.48.43-.17.13-.33.26-.49.41-.14.15-.21.27-.21.36a4.78 4.78 0 00.21.52 8.2 8.2 0 001.45 1.98 8.2 8.2 0 001.98 1.46 20.01 20.01 0 00.35.17c.07.03.13.04.18.04.1 0 .21-.07.36-.22.14-.15.28-.31.41-.48.13-.18.27-.34.43-.49.16-.15.29-.22.4-.22.06 0 .14.02.21.05l.28.17.2.14a22.5 22.5 0 001.33.75c.37.18.57.32.6.41l.02.17z"/>
</symbol><symbol id="icon-point" viewBox="0 0 9 9">
  
  <g clip-path="url(#point1)">
    <path fill="#5A6B79" d="M4.04.35a2.95 2.95 0 00-2.7 4.15 18.57 18.57 0 002.57 3.8.16.16 0 00.25 0C4.58 7.8 6 6.1 6.72 4.5A2.95 2.95 0 004.03.35zm0 4.47a1.53 1.53 0 110-3.06 1.53 1.53 0 010 3.06z"/>
  </g>
  
</symbol><symbol id="icon-search" viewBox="0 0 14 14">
  
  <path d="M8.97 8A3.38 3.38 0 0010 5.51c0-.97-.35-1.79-1.03-2.47A3.35 3.35 0 006.5 2.02c-.97 0-1.8.34-2.48 1.03A3.36 3.36 0 003 5.52c0 .96.34 1.79 1.02 2.47A3.39 3.39 0 006.5 9.02c.96 0 1.78-.34 2.47-1.03zM14 12.01c0 .27-.1.5-.3.7-.2.2-.43.3-.7.3a.93.93 0 01-.7-.3l-2.68-2.67a5.48 5.48 0 01-8.19-6.66A5.53 5.53 0 014.36.45a5.4 5.4 0 014.27 0 5.36 5.36 0 012.93 2.92 5.35 5.35 0 01-.53 5.25l2.68 2.68c.2.2.29.43.29.7z"/>
</symbol></svg>